<svg width="911" height="865" viewBox="0 0 911 865" fill="none" xmlns="http://www.w3.org/2000/svg">
<path d="M245.533 770.162L260.231 830.14L247.109 821.162L235.164 774.336L187.192 780.165L174.235 771.299L235.521 763.19L250.711 740.99L260.78 747.879L245.533 770.162Z" fill="black"/>
<path d="M187.909 724.067C180.799 729.801 173.434 731.287 165.812 728.527C158.148 725.714 149.755 718.652 140.632 707.338C131.467 695.974 126.343 686.274 125.26 678.241C124.177 670.207 127.19 663.324 134.3 657.59C141.409 651.857 148.775 650.37 156.397 653.131C164.018 655.892 172.412 662.954 181.577 674.319C190.7 685.632 195.824 695.332 196.949 703.417C198.032 711.451 195.018 718.334 187.909 724.067ZM180.753 715.193C183.762 712.766 185.6 710 186.264 706.895C186.929 703.789 186.279 700.117 184.316 695.876C182.259 691.626 178.803 686.491 173.948 680.471C169.052 674.399 164.766 669.934 161.089 667.075C157.361 664.257 153.91 662.844 150.734 662.836C147.559 662.828 144.466 664.037 141.456 666.464C138.394 668.933 136.557 671.7 135.944 674.763C135.331 677.827 136.007 681.478 137.97 685.719C139.934 689.959 143.364 695.115 148.26 701.187C153.115 707.206 157.427 711.651 161.197 714.52C164.925 717.338 168.351 718.771 171.474 718.822C174.598 718.872 177.691 717.663 180.753 715.193Z" fill="black"/>
<path d="M125.814 638.151L100.748 648.966L96.2313 638.499L119.92 628.278C122.981 626.957 125.323 625.148 126.945 622.851C128.507 620.58 129.248 617.755 129.17 614.376C129.03 611.024 127.957 607.021 125.95 602.369C124.55 599.125 122.598 595.611 120.094 591.826C117.564 587.981 114.635 584.053 111.307 580.043C107.892 575.999 104.179 571.937 100.169 567.859L106.596 565.086C109.131 567.259 111.803 569.665 114.61 572.301C117.357 574.965 120.091 577.851 122.812 580.961C125.445 584.036 127.931 587.356 130.268 590.922C132.64 594.4 134.645 598.037 136.282 601.832C138.712 607.463 140.051 612.586 140.298 617.198C140.546 621.811 139.51 625.888 137.19 629.43C134.87 632.973 131.078 635.879 125.814 638.151ZM70.4808 578.817L116.482 558.969L120.404 568.059L111.173 573.675L74.9971 589.284L70.4808 578.817Z" fill="black"/>
<path d="M83.9687 414.343C87.3685 414.3 90.3101 414.929 92.7936 416.23C95.2105 417.533 97.2394 419.774 98.8803 422.953C100.454 426.133 101.643 430.451 102.447 435.908C103.249 441.298 103.703 448.093 103.808 456.293C103.875 461.492 103.711 466.961 103.318 472.7C102.991 478.371 102.494 483.845 101.828 489.121C101.095 494.33 100.32 498.907 99.5041 502.852L89.4832 501.28C90.1754 498.071 90.7972 494.562 91.3484 490.755C91.8997 486.948 92.3817 482.941 92.7946 478.736C93.2074 474.53 93.5202 470.326 93.733 466.122C93.945 461.853 94.0249 457.685 93.9728 453.618C93.8976 447.752 93.6703 443.021 93.2909 439.426C92.8439 435.765 92.2415 432.972 91.4834 431.048C90.6578 429.059 89.6071 427.705 88.3311 426.988C87.0552 426.271 85.5506 425.924 83.8174 425.946C81.2843 425.979 79.4242 426.503 78.2371 427.518C76.9833 428.534 76.1022 430.012 75.5937 431.952C75.0185 433.893 74.616 436.298 74.386 439.168L71.4848 478.109C71.1591 483.913 70.3882 488.79 69.1721 492.739C67.8884 496.623 65.9924 499.547 63.484 501.513C60.9757 503.479 57.6216 504.488 53.422 504.542C48.7557 504.602 44.9718 503.284 42.0704 500.587C39.1689 497.891 37.0452 493.451 35.6992 487.268C34.2865 481.085 33.5148 472.895 33.3841 462.695C33.3414 459.362 33.4291 455.794 33.647 451.991C33.7974 448.122 34.047 444.185 34.3957 440.181C34.7436 436.109 35.1602 432.204 35.6457 428.464C36.1303 424.657 36.6858 421.183 37.3123 418.041L46.8371 419.92C46.2739 422.794 45.7825 426.067 45.3628 429.739C44.8765 433.412 44.4928 437.284 44.2116 441.355C43.8637 445.426 43.6159 449.497 43.468 453.565C43.2526 457.569 43.1684 461.403 43.2154 465.07C43.2905 470.936 43.5187 475.733 43.8998 479.462C44.2135 483.125 44.7831 485.951 45.6086 487.941C46.3667 489.865 47.3503 491.185 48.5596 491.903C49.7689 492.621 51.2402 492.969 52.9734 492.947C55.1732 492.919 56.8662 492.364 58.0525 491.282C59.172 490.201 59.9519 488.624 60.392 486.551C60.8313 484.412 61.2313 481.807 61.592 478.735L64.3061 440.797C64.5864 436.66 65.1056 432.953 65.8637 429.677C66.6218 426.4 67.7533 423.652 69.2584 421.432C70.6959 419.147 72.6073 417.422 74.9925 416.258C77.377 415.028 80.369 414.389 83.9687 414.343Z" fill="black"/>
<path d="M103.254 392.902L95.0376 390.345C96.343 387.592 97.7978 384.292 99.4021 380.446C100.942 376.582 102.462 372.539 103.961 368.319C105.478 364.034 106.79 359.865 107.897 355.814C109.25 350.862 109.887 346.509 109.807 342.756C109.745 338.937 108.747 335.762 106.813 333.229C104.879 330.696 101.919 328.885 97.9317 327.795C92.4655 326.301 88.0887 326.764 84.8013 329.182C81.5139 331.601 78.9299 336.251 77.0491 343.132C75.8012 347.698 75.0149 352.597 74.6904 357.83C74.3659 363.063 74.3629 368.384 74.6815 373.793C74.9358 379.184 75.3538 384.481 75.9356 389.686L69.7621 387.998C69.0388 384.829 68.3391 381.32 67.663 377.472C66.9226 373.607 66.4132 369.528 66.135 365.237C65.7924 360.927 65.7831 356.536 66.1072 352.063C66.367 347.573 67.1033 343.109 68.3161 338.672C70.0035 332.498 72.2954 327.527 75.1918 323.757C78.0415 319.905 81.5657 317.378 85.7646 316.176C89.9634 314.974 94.9567 315.164 100.744 316.746C107.047 318.468 111.69 321.327 114.676 325.322C117.615 329.236 119.2 334.058 119.43 339.788C119.597 345.5 118.713 351.894 116.78 358.968C115.022 365.398 112.882 371.586 110.358 377.531C107.852 383.412 105.484 388.536 103.254 392.902ZM125.804 392.327L122.772 403.42L56.5989 385.333L59.2355 375.687L70.917 377.325L125.804 392.327Z" fill="black"/>
<path d="M74.8697 268.318L87.0688 274.1L82.1861 284.401L69.9871 278.619L74.8697 268.318ZM133.964 308.943L88.6923 287.485L93.575 277.184L138.847 298.642L133.964 308.943Z" fill="black"/>
<path d="M167.19 204.111L189.374 219.85L182.778 229.148L161.736 214.219C158.963 212.252 156.22 211.164 153.506 210.956C150.793 210.748 148.06 211.547 145.307 213.354C142.5 215.122 139.669 218.018 136.814 222.042C133.574 226.609 130.577 232.33 127.825 239.206C125.018 246.042 122.598 253.602 120.563 261.886L114.772 257.778C115.312 254.482 115.986 250.996 116.796 247.32C117.606 243.644 118.64 239.882 119.898 236.034C121.157 232.186 122.683 228.365 124.477 224.569C126.309 220.719 128.478 217.027 130.986 213.493C134.457 208.599 138.107 204.895 141.935 202.379C145.709 199.825 149.693 198.646 153.886 198.842C158.025 198.999 162.46 200.755 167.19 204.111ZM145.515 281.672L104.654 252.684L110.44 244.528L120.058 249.635L152.112 272.374L145.515 281.672Z" fill="black"/>
<path d="M239.704 171.131L229.036 177.051L195.942 117.418L208.971 110.188L278.696 137.94L292.037 64.0896L304.89 56.9565L337.984 116.589L327.316 122.509L301.259 75.555L288.844 143.86L278.089 149.828L213.646 124.177L239.704 171.131Z" fill="black"/>
<path d="M393.092 99.8233C397.881 98.9589 402.307 97.9568 406.369 96.8172C410.431 95.6775 413.989 94.5611 417.044 93.4678C420.098 92.3746 422.416 91.5159 423.997 90.8918L427.886 98.9288C425.249 100.082 422.081 101.298 418.383 102.575C414.684 103.852 410.699 105.046 406.429 106.155C402.235 107.318 398.039 108.279 393.84 109.037C384.852 110.659 377.225 111.189 370.959 110.626C364.746 109.986 359.826 108.063 356.199 104.856C352.56 101.584 350.166 96.766 349.018 90.4021C347.893 84.1695 348.502 78.9111 350.845 74.6268C353.241 70.265 357.172 66.7103 362.638 63.9624C368.103 61.2146 374.871 59.1124 382.94 57.6559C388.517 56.6494 393.673 56.1253 398.407 56.0837C403.207 56.0302 407.473 56.5813 411.204 57.7369C414.936 58.8925 417.992 60.8135 420.374 63.4998C422.809 66.1087 424.424 69.611 425.217 74.0066C425.312 74.5314 425.397 75.1934 425.474 75.9926C425.538 76.7261 425.597 77.4268 425.65 78.0947C425.757 78.6851 425.813 79.1831 425.818 79.5886L355.553 92.2709L354.399 85.8743L416.495 74.6662L414.631 77.848C413.932 73.9772 412.571 70.9374 410.546 68.7285C408.575 66.4422 405.477 65.037 401.25 64.5128C397.088 63.9768 391.334 64.3719 383.986 65.6982C377.622 66.8468 372.507 68.3459 368.64 70.1953C364.828 71.9674 362.201 74.3044 360.76 77.2065C359.308 80.043 358.978 83.659 359.772 88.0546C360.399 91.5318 361.478 94.3178 363.008 96.4128C364.591 98.4302 366.709 99.8432 369.362 100.652C372.014 101.46 375.29 101.783 379.19 101.621C383.144 101.382 387.778 100.782 393.092 99.8233Z" fill="black"/>
<path d="M498.089 103.775L486.18 101.128L500.978 34.5528L564.917 48.7647C569.017 49.676 572.568 50.909 575.568 52.4638C578.584 53.9536 580.97 55.8157 582.727 58.0501C584.563 60.234 585.724 62.848 586.208 65.8923C586.707 68.8715 586.522 72.3135 585.655 76.2182C584.613 80.9038 582.867 84.6133 580.415 87.3465C578.029 90.0942 574.93 91.8982 571.119 92.7585C567.309 93.6188 562.811 93.5752 557.626 92.6277L550.186 91.0763L555.229 96.4998L574.329 120.721L559.1 117.336L536.801 88.6135L503.123 81.1278L498.089 103.775ZM510.609 47.4497L505.163 71.9518L556.412 83.343C561.423 84.4568 565.212 84.3087 567.779 82.8988C570.411 81.5034 572.212 78.6255 573.181 74.2652C574.165 69.8399 573.76 66.4377 571.967 64.0586C570.239 61.694 566.869 59.9548 561.858 58.841L510.609 47.4497Z" fill="black"/>
<path d="M629.127 69.682L623.697 82.042L613.26 77.4572L618.689 65.0971L629.127 69.682ZM590.215 129.919L610.364 84.0492L620.802 88.6341L600.652 134.504L590.215 129.919Z" fill="black"/>
<path d="M707.611 143.373L698.873 148.362C696.618 146.217 693.873 143.784 690.638 141.065C687.459 138.383 684.03 135.655 680.351 132.88C676.709 130.05 673.142 127.47 669.648 125.139C665.267 122.216 661.246 120.135 657.585 118.895C653.961 117.599 650.707 117.312 647.823 118.032C644.938 118.752 642.46 120.665 640.388 123.771C637.428 128.207 636.641 132.33 638.026 136.14C639.449 139.894 643.099 143.731 648.978 147.653C653.193 150.465 657.63 152.944 662.289 155.09C667.04 157.218 671.967 159.022 677.07 160.503C682.228 162.021 687.386 163.298 692.545 164.336L688.771 169.992C684.481 169.695 679.72 168.963 674.488 167.797C669.348 166.612 664.088 164.946 658.708 162.799C653.384 160.69 648.226 157.97 643.235 154.641C637.578 150.867 633.28 147.038 630.342 143.154C627.495 139.252 626.082 135.184 626.102 130.949C626.159 126.66 627.741 122.186 630.849 117.527C634.29 112.37 638.294 109.191 642.861 107.99C647.465 106.734 652.55 107.041 658.115 108.91C663.735 110.816 669.734 113.897 676.112 118.152C682.545 122.443 688.415 126.8 693.72 131.22C699.081 135.678 703.711 139.729 707.611 143.373ZM707.611 143.373L685.524 176.481C681.861 181.972 677.746 185.557 673.178 187.239C668.629 189.012 663.35 188.937 657.342 187.012C651.351 185.179 644.391 181.618 636.461 176.327C633.521 174.366 630.443 172.073 627.227 169.446C623.974 166.875 620.84 164.184 617.827 161.372C614.814 158.561 612.143 155.777 609.815 153.021L616.917 147.061C620.225 150.871 623.987 154.662 628.201 158.436C632.416 162.209 637.019 165.76 642.01 169.09C648.277 173.271 653.536 176.018 657.788 177.332C662.059 178.739 665.637 178.842 668.522 177.641C671.462 176.477 674.061 174.083 676.318 170.46L678.566 166.189L697.601 137.656L707.611 143.373Z" fill="black"/>
<path d="M764.102 233.086L743.644 251.01L736.131 242.436L755.537 225.434C758.094 223.193 759.789 220.778 760.622 218.187C761.454 215.597 761.311 212.753 760.193 209.655C759.125 206.514 756.965 203.088 753.714 199.377C750.024 195.165 745.154 190.922 739.106 186.649C733.108 182.332 726.316 178.222 718.732 174.32L724.373 169.377C727.453 170.667 730.662 172.155 733.999 173.84C737.387 175.481 740.781 177.382 744.181 179.543C747.626 181.755 750.961 184.196 754.186 186.865C757.505 189.541 760.593 192.509 763.448 195.768C767.402 200.281 770.136 204.666 771.65 208.923C773.259 213.187 773.481 217.335 772.317 221.369C771.203 225.358 768.465 229.264 764.102 233.086ZM693.693 193.997L750.104 144.573L757.617 153.148L701.205 202.571L693.693 193.997Z" fill="black"/>
<path d="M816.431 300.517L786.035 241.933L794.379 237.604L824.775 296.188L816.431 300.517ZM777.586 260.173L798.623 249.258L812.419 244.579L816.702 252.834L783.682 269.967C779.894 271.932 777.137 274 775.411 276.173C773.743 278.315 773.096 280.904 773.469 283.94C773.843 286.976 775.181 290.713 777.483 295.151C779.602 299.234 781.802 302.824 784.085 305.921C786.398 309.076 788.679 312.024 790.926 314.763L783.773 320.953C781.346 318.157 778.748 314.886 775.978 311.141C773.209 307.395 770.673 303.303 768.37 298.865C765.116 292.593 763.199 287.09 762.622 282.358C762.134 277.654 763.101 273.51 765.522 269.925C767.943 266.341 771.965 263.09 777.586 260.173Z" fill="black"/>
<path d="M800.691 385.826L799.465 373.687L867.319 366.831L873.904 432C874.326 436.178 874.27 439.936 873.736 443.274C873.269 446.604 872.25 449.454 870.68 451.824C869.184 454.254 867.066 456.176 864.328 457.592C861.656 459.001 858.33 459.907 854.351 460.309C849.575 460.791 845.505 460.298 842.14 458.829C838.782 457.426 836.096 455.05 834.083 451.703C832.069 448.355 830.698 444.071 829.97 438.851L829.107 431.299L825.541 437.791L808.542 463.53L806.974 448.009L827.242 417.819L823.774 383.493L800.691 385.826ZM858.099 380.025L833.126 382.548L838.404 434.782C838.92 439.89 840.25 443.441 842.395 445.435C844.546 447.496 847.844 448.302 852.288 447.853C856.798 447.397 859.901 445.945 861.597 443.495C863.299 441.112 863.893 437.367 863.377 432.259L858.099 380.025Z" fill="black"/>
<path d="M832.192 483.741C841.159 485.479 847.044 490.15 849.849 497.756C852.64 505.427 852.654 516.396 849.89 530.664C847.112 544.998 843.003 555.169 837.561 561.176C832.118 567.184 824.914 569.319 815.947 567.582C806.981 565.845 801.095 561.173 798.291 553.568C795.486 545.962 795.473 534.992 798.25 520.659C801.015 506.391 805.124 496.22 810.579 490.147C816.021 484.139 823.226 482.004 832.192 483.741ZM830.024 494.933C826.228 494.198 822.929 494.577 820.126 496.071C817.324 497.566 814.936 500.43 812.961 504.665C811.039 508.978 809.342 514.931 807.871 522.523C806.387 530.181 805.738 536.336 805.923 540.99C806.173 545.656 807.319 549.205 809.36 551.638C811.401 554.071 814.32 555.655 818.116 556.39C821.977 557.138 825.277 556.759 828.013 555.252C830.75 553.745 833.106 550.874 835.081 546.639C837.055 542.404 838.785 536.458 840.269 528.8C841.74 521.208 842.356 515.046 842.119 510.315C841.868 505.649 840.755 502.106 838.78 499.686C836.804 497.265 833.885 495.681 830.024 494.933Z" fill="black"/>
<path d="M806.561 586.603L830.99 598.789L825.901 608.99L802.814 597.474C799.831 595.986 796.939 595.362 794.137 595.604C791.394 595.874 788.757 597.129 786.224 599.368C783.752 601.636 781.385 605.037 779.123 609.571C777.546 612.733 776.119 616.491 774.841 620.845C773.533 625.258 772.42 630.03 771.5 635.159C770.611 640.377 769.9 645.834 769.369 651.529L763.105 648.404C763.132 645.065 763.248 641.472 763.453 637.626C763.717 633.809 764.161 629.859 764.783 625.773C765.435 621.778 766.371 617.737 767.589 613.651C768.718 609.595 770.205 605.718 772.05 602.02C774.788 596.531 777.84 592.205 781.206 589.042C784.572 585.878 788.357 584.041 792.56 583.53C796.763 583.019 801.43 584.044 806.561 586.603ZM796.887 667.155L752.056 644.792L756.475 635.933L766.719 639.367L801.976 656.954L796.887 667.155Z" fill="black"/>
<path d="M712.408 733.951L692.062 715.899L699.628 707.372L718.927 724.494C721.47 726.751 724.079 728.13 726.754 728.631C729.428 729.133 732.232 728.634 735.165 727.137C738.148 725.684 741.276 723.112 744.55 719.422C748.267 715.233 751.866 709.87 755.348 703.334C758.879 696.842 762.106 689.589 765.027 681.575L770.338 686.287C769.444 689.505 768.396 692.897 767.192 696.463C765.988 700.03 764.552 703.658 762.884 707.346C761.215 711.035 759.284 714.669 757.089 718.247C754.85 721.876 752.293 725.311 749.417 728.552C745.435 733.04 741.405 736.327 737.326 738.412C733.298 740.542 729.21 741.282 725.062 740.633C720.965 740.028 716.747 737.8 712.408 733.951ZM742.368 659.199L779.844 692.449L773.208 699.929L764.2 693.809L734.802 667.726L742.368 659.199Z" fill="black"/>
<path d="M645.846 805.325L641.324 797.887C644.069 796.723 647.298 795.203 651.01 793.326C654.702 791.54 658.535 789.544 662.508 787.336C666.426 785.164 670.112 782.944 673.568 780.677C677.916 777.824 681.311 774.918 683.755 771.959C686.236 769.056 687.636 766.024 687.955 762.865C688.218 759.742 687.197 756.424 684.893 752.913C681.785 748.175 678.142 745.661 673.965 745.372C669.788 745.083 664.69 746.913 658.67 750.863C654.49 753.606 650.602 756.795 647.007 760.429C643.411 764.064 639.981 767.95 636.715 772.086C633.485 776.278 630.394 780.499 627.441 784.749L623.93 779.398C625.542 776.507 627.349 773.368 629.352 769.98C631.392 766.648 633.682 763.272 636.222 759.851C638.742 756.523 641.53 753.298 644.586 750.177C647.677 747.112 651.091 744.354 654.825 741.904C660.343 738.283 665.473 735.954 670.214 734.916C674.955 733.878 679.325 734.28 683.324 736.121C687.36 738.018 691.023 741.475 694.315 746.492C697.936 752.01 699.525 757.227 699.082 762.142C698.62 767.149 696.533 771.868 692.821 776.297C689.109 780.726 684.187 784.952 678.056 788.975C672.315 792.742 666.643 795.945 661.039 798.586C655.416 801.318 650.352 803.564 645.846 805.325ZM666.503 825.141L656.971 831.395L615.827 768.688L624.188 763.202L631.777 772.217L666.503 825.141Z" fill="black"/>
<path d="M467.156 827.594H488.531M399.469 813.344C399.469 834.719 419.405 852.531 444 852.531C470.719 852.531 488.531 827.594 488.531 827.594V852.531M420.844 788.406H399.469M488.531 802.656C488.531 781.281 468.595 763.469 444 763.469C417.281 763.469 399.469 788.406 399.469 788.406V763.469" stroke="black" stroke-width="10.6875" stroke-linecap="round" stroke-linejoin="round"/>
</svg>
